PathFileType	4	(X/Y/Z)	..\data\2014029\dynamic\2014029_C5_05.trc
DataRate	CameraRate	NumFrames	NumMarkers	Units	OrigDataRate	OrigDataStartFrame	OrigNumFrames
100.000000	100.000000	4	52	mm	100.000000	43	172
Frame#	Time	L_IAS			L_IPS			R_IPS			R_IAS			L_FTC			L_FLE			L_FME			L_FAX			L_TTC			L_FAL			L_TAM			L_FCC			L_FM1			L_FM2			L_FM5			R_FTC			R_FLE			R_FME			R_FAX			R_TTC			R_FAL			R_TAM			R_FCC			R_FM1			R_FM2			R_FM5			CV7			TV10			SXS			SJN			L_SIA			L_SRS			L_SAA			L_SAE			L_HLE			L_HME			L_UOA			L_RSP			L_UHE			L_HM2			L_HM5			R_SIA			R_SRS			R_SAA			R_SAE			R_HLE			R_HME			R_UOA			R_RSP			R_UHE			R_HM2			R_HM5			
		X1	Y1	Z1	X2	Y2	Z2	X3	Y3	Z3	X4	Y4	Z4	X5	Y5	Z5	X6	Y6	Z6	X7	Y7	Z7	X8	Y8	Z8	X9	Y9	Z9	X10	Y10	Z10	X11	Y11	Z11	X12	Y12	Z12	X13	Y13	Z13	X14	Y14	Z14	X15	Y15	Z15	X16	Y16	Z16	X17	Y17	Z17	X18	Y18	Z18	X19	Y19	Z19	X20	Y20	Z20	X21	Y21	Z21	X22	Y22	Z22	X23	Y23	Z23	X24	Y24	Z24	X25	Y25	Z25	X26	Y26	Z26	X27	Y27	Z27	X28	Y28	Z28	X29	Y29	Z29	X30	Y30	Z30	X31	Y31	Z31	X32	Y32	Z32	X33	Y33	Z33	X34	Y34	Z34	X35	Y35	Z35	X36	Y36	Z36	X37	Y37	Z37	X38	Y38	Z38	X39	Y39	Z39	X40	Y40	Z40	X41	Y41	Z41	X42	Y42	Z42	X43	Y43	Z43	X44	Y44	Z44	X45	Y45	Z45	X46	Y46	Z46	X47	Y47	Z47	X48	Y48	Z48	X49	Y49	Z49	X50	Y50	Z50	X51	Y51	Z51	X52	Y52	Z52	

44	0.43	-721.3703613281251	1051.389892578125	117.1098861694335	-926.2849731445315	1046.0419921875	192.7374725341796	-923.1068115234377	1051.81298828125	292.7621154785156	-720.0244140625001	1058.420166015625	366.7622375488281	-790.3349609375002	955.304382324219	50.6899871826171	-619.0697631835939	538.7363281250001	75.76518249511713	-593.7271728515626	513.0910644531251	197.5253601074218	-624.7066040039064	473.3821411132814	67.33152770996088	-549.1633911132814	468.1847229003907	120.1953659057617	-631.7672729492189	99.27748870849612	89.98912811279291	-584.3469848632814	111.6199798583985	181.0900878906249	-667.4151611328126	34.75827789306641	145.2463684082031	-452.9205627441407	46.43400192260743	136.3479461669922	-474.5421142578126	61.44287490844728	96.0812072753906	-523.3779296875001	35.89997100830079	49.36130905151362	-834.7600708007815	950.137634277344	430.3954772949219	-861.6101074218752	510.039031982422	381.6089477539062	-873.5434570312502	496.2041015625001	253.0650177001953	-891.5166625976565	444.1812744140626	381.7222595214843	-821.2016601562502	437.0151672363282	320.8879699707031	-948.2124023437502	81.55908966064455	305.7021789550781	-921.9595947265627	97.19084167480472	207.4576873779296	-1002.317993164063	28.315824508667	258.7364501953124	-785.9097290039065	22.19268798828125	217.4036254882812	-784.091735839844	35.26219940185548	277.8294982910156	-819.5798339843752	12.68130683898926	335.9878234863281	-818.106140136719	1587.090942382813	236.5066680908203	-920.1240234375002	1323.9853515625	245.9654235839843	-671.3497924804689	1284.003295898438	229.212417602539	-697.8038940429689	1478.391845703125	231.1420593261718	-953.6479492187502	1365.052856445313	158.2577362060546	-897.7415161132815	1514.345458984375	142.1654663085937	-860.3587036132815	1507.436401367188	29.71395683288564	-804.4204101562502	1504.049072265625	13.99897003173819	-898.6844482421877	1153.866943359375	-38.11843109130871	-914.7851562500002	1155.001953125	58.39816665649404	-932.2043457031252	1146.620727539063	14.05909919738759	-832.571716308594	870.6201171875002	-9.903119087219341	-912.3186645507815	890.5078735351565	-52.83720016479505	-817.8249511718752	785.714782714844	-8.125478744506937	-919.5474243164065	803.8267211914065	-61.94786071777357	-931.7791748046877	1366.224609375	346.5692749023437	-884.228210449219	1509.35107421875	344.9218444824218	-829.0388183593752	1510.2021484375	447.2857055664062	-776.1452636718752	1514.926635742188	455.1079406738281	-805.4490966796878	1164.70849609375	544.5404052734375	-832.8079833984377	1144.35107421875	456.9687194824219	-837.9038085937503	1139.162719726563	516.5682983398438	-619.4682617187502	940.8610839843752	505.2941589355469	-693.3892822265627	922.8562011718752	557.1097412109375	-567.8867797851565	863.5178222656252	504.8065795898438	-669.1160278320315	837.8557128906252	561.9761352539062	
45	0.44	-707.4377441406251	1049.51513671875	117.3416290283203	-912.753845214844	1043.457153320313	191.8829345703124	-910.3191528320315	1049.764892578125	291.8259277343749	-707.8819580078126	1056.774658203125	367.0297851562499	-776.344421386719	953.086364746094	50.73295593261711	-606.2185668945314	535.2820434570314	76.04592895507807	-581.3265380859376	510.1443481445314	198.0931396484375	-609.1467285156251	469.6431579589845	67.8105850219726	-533.6762084960939	467.949188232422	120.8420791625976	-591.9898071289064	95.87611389160158	90.19882965087885	-545.1771240234376	110.9170989990235	181.2320251464843	-623.6146850585939	29.48076248168946	145.8714904785156	-410.3745727539064	52.73608016967775	137.1116333007812	-432.5504150390626	66.18551635742189	96.59590148925778	-479.8074035644532	37.85751724243165	49.89907836914058	-823.4056396484377	948.8904418945315	430.4622802734375	-855.403747558594	509.6783142089845	381.1834411621093	-867.234558105469	496.1727905273439	252.6620788574218	-886.3967895507815	444.2146301269532	381.2572326660156	-816.0178833007815	436.0578918457032	320.7601928710937	-947.6458740234377	82.16278076171876	304.8183288574218	-920.8589477539065	97.56398773193362	206.6582336425781	-1002.012390136719	29.22563171386719	257.5563964843749	-785.5936279296877	21.99639129638672	217.4282989501953	-783.886657714844	35.07787704467774	277.8115844726562	-819.730895996094	12.61832618713379	335.8723449707031	-805.0769042968752	1584.99072265625	235.9027404785156	-907.5238037109377	1322.078735351563	245.0990600585937	-658.3296508789064	1281.940185546875	229.2966156005859	-684.8695678710939	1476.199462890625	230.7689819335937	-940.7598876953127	1362.871948242188	158.180206298828	-884.4817504882815	1511.903442382813	141.2878875732421	-847.3784179687502	1504.973876953125	29.34728431701651	-791.473571777344	1501.459716796875	13.39249610900869	-889.6992187500002	1152.231201171875	-37.05871200561535	-904.8107910156252	1153.875732421875	59.64040756225576	-922.6594848632815	1145.827026367188	15.54172992706288	-830.025329589844	867.5424804687502	-9.335689544677837	-909.7708740234377	889.3638305664065	-51.504119873047	-817.691101074219	782.227233886719	-7.330551624298198	-919.500427246094	802.884216308594	-60.31287002563489	-918.9753417968752	1364.301025390625	346.1883544921874	-871.3955078125002	1507.48876953125	344.4694824218749	-816.2222290039065	1508.443115234375	446.8651733398438	-763.3182373046876	1513.224731445313	454.6224060058594	-790.6210937500003	1163.345947265625	545.8976440429688	-818.3596801757815	1142.286865234375	458.6181945800781	-823.0564575195316	1137.239013671875	518.291015625	-600.4990234375002	943.290222167969	506.3586425781251	-673.9309082031252	923.6060180664065	558.1685180664062	-547.1013793945315	867.3003540039065	505.9287109375001	-647.7860107421877	839.077331542969	562.7260131835938	
46	0.45	-693.3823852539064	1047.50732421875	117.5978851318359	-899.1168212890627	1040.679565429688	190.8749389648437	-897.461364746094	1047.550659179688	290.7668457031249	-695.7330932617189	1055.108520507813	367.3243408203125	-762.1698608398439	950.6558837890627	50.75320053100578	-593.6005249023439	531.6458740234376	76.28524017333979	-569.1965942382814	506.9669799804689	198.6545715332031	-593.9087524414064	465.8914489746095	68.29866027832026	-518.6884765625001	467.5691223144532	121.5015487670898	-553.5677490234376	93.70283508300783	90.56260681152338	-507.4900207519532	111.4024047851563	181.5528717041015	-581.2262573242189	25.62641334533692	146.6741180419921	-369.8103027343751	60.078670501709	138.4077606201172	-392.3033752441407	71.94529724121095	97.57484436035155	-437.7935485839845	40.94184112548829	50.84069824218746	-812.097839355469	947.5930786132815	430.4529418945312	-848.9610595703127	509.2991943359376	380.7312011718749	-860.536071777344	496.111297607422	252.2279357910156	-881.0364379882815	444.2634277343751	380.7608337402343	-810.588073730469	435.0696411132814	320.6232910156249	-947.0557250976565	82.88419342041017	303.9351196289062	-919.6755981445315	98.01240539550784	205.8497009277343	-1001.678283691406	30.33640670776368	256.3710632324218	-785.3150634765627	21.81044006347657	217.4570617675781	-783.714294433594	34.88037109375001	277.7857666015624	-819.921081542969	12.55107975006104	335.7374572753906	-792.0413818359377	1582.751831054688	235.2573699951172	-894.9742431640627	1320.081787109375	244.1452636718749	-645.2867431640626	1279.770263671875	229.3286895751953	-671.8945922851564	1473.909545898438	230.3397521972656	-927.7971801757815	1360.508666992188	158.0142211914062	-871.2083740234377	1509.323608398438	140.3851776123046	-834.390319824219	1502.40625	28.90997123718252	-778.521911621094	1498.834228515625	12.71293354034415	-880.483093261719	1150.535034179688	-36.13423156738293	-894.5464477539065	1152.609130859375	60.66697311401358	-912.8702392578127	1144.920654296875	16.86183738708485	-827.0539550781252	864.5908813476565	-8.858641624450787	-906.6683349609377	888.297790527344	-50.3311576843263	-817.1779785156252	778.9026489257815	-6.524861812591655	-918.882263183594	802.0886840820315	-58.76235961914075	-906.1973266601565	1362.214477539063	345.6509094238281	-858.570739746094	1505.499389648438	343.9270019531249	-803.4421997070315	1506.52734375	446.37451171875	-750.5234985351564	1511.3603515625	454.0768127441406	-775.8992919921878	1161.850830078125	547.1581420898438	-803.929626464844	1140.047119140625	460.1535949707031	-808.2929687500003	1135.179077148438	519.905517578125	-581.8435668945315	945.5582275390627	507.3702392578126	-654.7552490234377	924.2554931640627	559.190185546875	-526.709899902344	870.9558105468752	507.0325927734376	-626.7558593750002	840.250427246094	563.5167846679688	
47	0.46	-679.2163696289064	1045.38671875	117.8822860717773	-885.3880615234377	1037.757934570313	189.701919555664	-884.5344238281252	1045.201049804688	289.5828247070312	-683.5687866210939	1053.441040039063	367.6474609375	-747.7979736328126	948.0574340820315	50.74121856689445	-581.0756835937501	527.9536743164064	76.5361709594726	-557.1816406250001	503.6993408203126	199.2504119873047	-578.8938598632814	462.2189941406251	68.83216857910151	-504.0819702148439	467.0933532714845	122.2232437133789	-516.8658447265626	92.59425354003908	91.09370422363277	-471.6452941894532	112.8762359619141	182.0733642578125	-540.7016601562501	23.02514457702637	147.6366577148437	-331.5387573242188	68.19339752197267	140.2260589599609	-354.1245727539063	78.48744201660158	99.01711273193358	-397.7009887695314	44.93346405029298	52.19342803955075	-800.8291625976565	946.2611083984377	430.353271484375	-842.2198486328127	508.9031982421876	380.2575073242187	-853.3997192382815	496.0125732421876	251.7671966552734	-875.3613891601565	444.3264465332032	380.2435913085937	-804.8560180664065	434.054168701172	320.4679870605468	-946.428405761719	83.74062347412111	303.1030273437499	-918.4278564453127	98.55368804931643	205.0710449218749	-1001.321350097656	31.6740837097168	255.2486419677734	-785.0767822265627	21.64676475524903	217.4907684326172	-783.5711669921877	34.68354415893555	277.7566223144531	-820.135925292969	12.48844242095948	335.5903015136718	-778.9942016601565	1580.4072265625	234.5656585693359	-882.4632568359377	1318.02587890625	243.1186981201171	-632.2147827148439	1277.524169921875	229.3158111572265	-658.8718872070314	1471.554565429688	229.8557434082031	-914.7566528320315	1357.993286132813	157.753204345703	-857.9209594726565	1506.645263671875	139.4743194580077	-821.3859863281252	1499.762573242188	28.40544319152823	-765.5518798828126	1496.191528320313	11.96466732025137	-871.0180664062502	1148.79150390625	-35.35686111450207	-883.9998779296877	1151.210815429688	61.46561431884756	-902.828796386719	1143.911010742188	17.99841880798329	-823.6091308593752	861.769470214844	-8.477399826049908	-902.970886230469	887.3020629882815	-49.33090591430677	-816.2141113281252	775.7480468750002	-5.718720912933451	-917.6335449218752	801.4273681640627	-57.30817413330091	-893.4355468750002	1360.00390625	344.9658508300781	-845.7479248046877	1503.417602539063	343.2929382324218	-790.689880371094	1504.492919921875	445.8113708496094	-737.7525634765626	1509.37255859375	453.4684143066406	-761.2989501953127	1160.251708984375	548.30322265625	-789.5252685546877	1137.675415039063	461.5523681640625	-793.6251220703128	1133.019653320313	521.3831176757812	-563.531433105469	947.654724121094	508.3193664550782	-635.9003906250002	924.8072509765627	560.16650390625	-506.7437133789064	874.4639892578127	508.1126708984376	-606.0706176757815	841.375427246094	564.3597412109375	
